<svg xmlns="http://www.w3.org/2000/svg" width="250" height="250" fill="none" viewBox="0 0 250 250">
  <path d="m190.3 48.22h-85.93l-16.12-18.69c-1.87-2.19-3.5-2.22-5.05-2.22h-64.47c-8.24 0-12.77 8.56-12.77 17.43v160.3c0 9.5 6.82 16.05 14.08 16.05l169.9-0.02c7.95 0 14.16-6.2 16.21-13.23l36.62-100.1c3.29-8.98-1.08-16.09-8.5-16.09h-160.1c-8.37 0-14.26 5.48-17.13 14.28l-36.4 100c-2.27 0-4.6-4.78-3.95-6.36l11.06-30.11v-85.63c0-10.91 8.66-20.55 17.65-20.55h157.6v-1.34c0-8.04-6.11-13.71-12.7-13.71z" fill="#0c4a6e"/>
  <path d="m208.9 69.61h-161.5c-7.69 0-12.93 6.51-12.93 14.65v65.4l17.12-46.6c4.43-11.9 12.59-17.38 22.01-17.15h146.5c-0.23-8.84-3.81-16.3-11.23-16.3z" fill="#7dd3fc"/>
  <path d="m233.8 104.8-40.16 101.3c-1.28 2.98-3.94 3.58-5.81 3.58l-153.4-1.12 34.69-99.38c1.6-4.28 3.82-6.1 8.58-6.1l153.8 0.56c2.01 0 2.95-0.19 2.34 1.18z" fill="url(#paint0_linear_2914_20398)"/>
  <path d="m230.7 104.5-33.41 22.18-0.9-1.9 33.3-20.7 1.01 0.42z" fill="#FEFEFF"/>
  <path d="m97.42 128.1 40.81 12.84-0.86 3.46-40.36-14.58 0.41-1.72z" fill="#FEFEFF"/>
  <path d="m156.9 139.8 25.9-7.31 0.75 3.78-26.32 8.46-0.33-4.93z" fill="#FEFEFF"/>
  <path d="m100.6 131.9 37.49 21.94-0.63 4.55-37.41-25.41 0.55-1.08z" fill="#FEFEFF"/>
  <path d="m155.1 152.1 14.73 24.74 1.96 0.91-2.4 1.5-16.43-24.17 2.14-2.98z" fill="#FEFEFF"/>
  <path d="m144.3 157.1 21.72 22.6-0.93 2.03-22.91-18 2.12-6.63z" fill="#FEFEFF"/>
  <path d="m188.2 139.8 1.85 1.32-15.4 37.44-3.32-0.76 16.87-38z" fill="#FEFEFF"/>
  <path d="m144.9 124.8 2.41 0.08 0.68 9.96-2.25 0.28-0.84-10.32z" fill="#FEFEFF"/>
  <path d="m143.3 159-16.6 26.24 3.98 1.01 14.22-23.57-0.63-3.97-0.97 0.29z" fill="#FEFEFF"/>
  <path d="m164.8 184.4-32.26 5.18 0.28 3.46 32.35-5.62-0.37-3.02z" fill="#FEFEFF"/>
  <path d="m90.4 181.1 29.63 7.03-0.95 2.61-29.44-6.8 0.76-2.84z" fill="#FEFEFF"/>
  <path d="m137.8 151.8-47.76 22.63 0.86 2.9 47.12-22.29-0.22-3.24z" fill="#FEFEFF"/>
  <path d="m89.77 136.3 1.7 0.57-7.12 33.94-2.93-0.39 8.35-34.12z" fill="#FEFEFF"/>
  <path d="m93.17 135.9 30.04 49.88-2.32 1.6-29.44-49.61 1.72-1.87z" fill="#FEFEFF"/>
  <path d="m72.64 184.1-36.31 25.22 1.22 0.04 37.37-22.54-2.28-2.72z" fill="#FEFEFF"/>
  <path d="m145.7 113.4c-4.87 0-6.56 4.37-6.56 5.88 0 3.42 2.05 6.32 6.37 6.32 4.82 0 5.75-3.73 5.75-6.45 0-3.3-2.33-5.75-5.56-5.75z" fill="#0369a1"/>
  <path d="m147.8 133.9c-7.65 0-11.26 7.32-11.26 12.14 0 6.97 4.67 11.87 11.1 11.6 6.96-0.28 10.19-7.01 10.19-11.19 0-6.22-4.09-12.55-10.03-12.55z" fill="#0369a1"/>
  <path d="m190.9 122c-7.57 0.64-9.2 7.31-9.2 10.37 0 6.39 4.53 9.81 8.69 9.4 7.35-0.72 9.6-6.96 9.6-9.68 0-5.89-4.2-10.49-9.09-10.09z" fill="#0369a1"/>
  <path d="m171.7 177.4c-5.8 0.54-7.79 5.74-7.79 8.25 0 4.67 3.5 7.8 7.4 7.66 5.69-0.21 8.17-5.47 8.17-7.97 0-4.53-3.2-8.35-7.78-7.94z" fill="#0369a1"/>
  <path d="m125.4 185.1c-5.9 0-7.19 5.04-7.19 8.04 0 4.8 3.87 7.26 7.05 7.26 5.14 0 7.4-4.45 7.4-7.46 0-4.5-3.07-7.84-7.26-7.84z" fill="#0369a1"/>
  <path d="m90.01 120.2c-5.69 0.48-7.5 6.04-7.5 8.5 0 5.46 3.91 8.32 7.37 8.32 5.2 0 7.61-4.57 7.61-8.05 0-4.64-3.32-9.18-7.48-8.77z" fill="#0369a1"/>
  <path d="m81.47 170.2c-7.48 0.54-10.76 6.14-10.76 10.13 0 6.33 4.28 9.67 9.97 9.4 7.1-0.34 9.75-5.62 9.75-9.61 0-5.13-3.61-10.32-8.96-9.92z" fill="#0369a1"/>
  <defs>
    <linearGradient id="paint0_linear_2914_20398" x1="133.9" x2="133.9" y1="100.9" y2="208.2" gradientUnits="userSpaceOnUse">
      <stop stop-color="#bae6fd" offset="0"/>
      <stop stop-color="#7dd3fc" offset="1"/>
    </linearGradient>
  </defs>
</svg>
